<?xml version="1.0" encoding="UTF-8" standalone="no"?>
<!-- Created with Inkscape (http://www.inkscape.org/) -->

<svg
   version="1.1"
   id="svg2"
   width="320.50934"
   height="518.06134"
   viewBox="0 0 320.50935 518.06136"
   sodipodi:docname="logo 3 - just logo - transparant.svg"
   inkscape:version="1.2 (dc2aedaf03, 2022-05-15)"
   xmlns:inkscape="http://www.inkscape.org/namespaces/inkscape"
   xmlns:sodipodi="http://sodipodi.sourceforge.net/DTD/sodipodi-0.dtd"
   xmlns="http://www.w3.org/2000/svg"
   xmlns:svg="http://www.w3.org/2000/svg">
  <defs
     id="defs6">
    <clipPath
       clipPathUnits="userSpaceOnUse"
       id="clipPath20">
      <path
         d="M 0,1000 H 1000 V 0 H 0 Z"
         id="path18" />
    </clipPath>
  </defs>
  <sodipodi:namedview
     id="namedview4"
     pagecolor="#ffffff"
     bordercolor="#666666"
     borderopacity="1.0"
     inkscape:showpageshadow="2"
     inkscape:pageopacity="0"
     inkscape:pagecheckerboard="true"
     inkscape:deskcolor="#d1d1d1"
     showgrid="false"
     inkscape:zoom="1.0892981"
     inkscape:cx="359.86476"
     inkscape:cy="247.40702"
     inkscape:window-width="2073"
     inkscape:window-height="1228"
     inkscape:window-x="1064"
     inkscape:window-y="61"
     inkscape:window-maximized="0"
     inkscape:current-layer="g10">
    <inkscape:page
       x="0"
       y="0"
       id="page8"
       width="320.50934"
       height="518.06134" />
  </sodipodi:namedview>
  <g
     id="g10"
     inkscape:groupmode="layer"
     inkscape:label="Page 1"
     transform="matrix(1.3333333,0,0,-1.3333333,-190.04213,922.94518)">
    <ellipse
       style="fill:#0f47af;fill-opacity:1;stroke-width:1.85484"
       id="path4675"
       cx="260.91959"
       cy="-571.81116"
       transform="scale(1,-1)"
       rx="112.01122"
       ry="116.60174" />
    <ellipse
       style="fill:#0f47af;fill-opacity:1;stroke-width:1.61296"
       id="path5455"
       cx="261.44107"
       cy="-435.24832"
       transform="scale(1,-1)"
       rx="114.89776"
       ry="128.52969" />
    <rect
       style="fill:#0f47af;fill-opacity:1;stroke-width:1.68733"
       id="rect5509"
       width="227.36124"
       height="181.59688"
       x="148.49074"
       y="-591.52875"
       transform="scale(1,-1)" />
    <g
       id="g14">
      <g
         id="g16"
         clip-path="url(#clipPath20)">
        <g
           id="g22"
           transform="translate(249.502,309.3643)">
          <path
             d="m 0,0 c 4.337,-0.535 8.743,-0.843 13.222,-0.843 49.286,0 90.902,33.362 103.525,78.68 C 82.169,58.871 48.688,37.211 17.069,13.295 11.211,8.857 5.519,4.414 0,0"
             style="fill:#fcdd09;fill-opacity:1;fill-rule:nonzero;stroke:none"
             id="path24" />
        </g>
        <g
           id="g26"
           transform="translate(250.0596,380.5889)">
          <path
             d="m 0,0 c -12.061,6.788 -24.425,13.359 -36.906,19.582 -18.97,9.428 -38.412,18.1 -57.905,25.942 V 35.408 c 0,-4.26 0.276,-8.454 0.761,-12.586 22.736,-12.082 45.219,-25.45 66.946,-39.801 C -18.144,-11.127 -9.078,-5.437 0,0"
             style="fill:#fcdd09;fill-opacity:1;fill-rule:nonzero;stroke:none"
             id="path28" />
        </g>
        <g
           id="g30"
           transform="translate(219.4038,350.7236)">
          <path
             d="m 0,0 c -19.55,13.058 -39.755,25.298 -60.218,36.521 10.003,-35.975 38.277,-64.395 74.163,-74.609 6.028,4.96 12.318,9.984 18.834,15.023 C 22.061,-15.138 11.076,-7.392 0,0"
             style="fill:#fcdd09;fill-opacity:1;fill-rule:nonzero;stroke:none"
             id="path32" />
        </g>
        <g
           id="g34"
           transform="translate(230.0757,405.832)">
          <path
             d="M 0,0 C 11.076,-5.729 22,-11.705 32.666,-17.834 67.287,2.06 103.395,19.472 140.122,33.991 V 53.989 C 107.95,44.938 75.971,33.756 44.952,20.648 29.854,14.273 14.791,7.336 0,0"
             style="fill:#fcdd09;fill-opacity:1;fill-rule:nonzero;stroke:none"
             id="path36" />
        </g>
        <g
           id="g38"
           transform="translate(234.4268,355.9014)">
          <path
             d="m 0,0 c 9.579,-6.553 19.053,-13.333 28.316,-20.253 33.823,25.276 69.67,48.036 106.688,67.719 0.488,4.145 0.767,8.354 0.767,12.63 V 70.224 C 100.119,55.866 65.078,38.774 31.5,19.282 20.99,13.188 10.432,6.715 0,0"
             style="fill:#fcdd09;fill-opacity:1;fill-rule:nonzero;stroke:none"
             id="path40" />
        </g>
        <g
           id="g42"
           transform="translate(275.5132,588.063)"
           inkscape:label="Hoofd"
           style="fill:#000000;fill-opacity:1">
          <path
             d="m 0,0 c 12.038,0 21.797,9.759 21.797,21.797 0,12.038 -9.759,21.797 -21.797,21.797 -12.038,0 -21.797,-9.759 -21.797,-21.797 C -21.797,9.759 -12.038,0 0,0"
             style="fill:#000000;fill-opacity:1;fill-rule:nonzero;stroke:none"
             id="path44" />
        </g>
        <g
           id="g46"
           transform="translate(262.7236,316.3799)">
          <path
             d="M 0,0 C -4.479,0 -8.885,0.308 -13.222,0.843 -7.703,5.256 -2.011,9.7 3.847,14.137 35.466,38.054 68.948,59.713 103.524,78.68 90.902,33.36 49.287,0 0,0 M -103.538,78.722 C -83.076,67.5 -62.87,55.259 -43.32,42.202 -32.244,34.81 -21.259,27.064 -10.541,19.136 -17.057,14.098 -23.347,9.074 -29.374,4.114 -65.261,14.328 -93.534,42.747 -103.538,78.722 M -1.87,363.097 c 60.13,1.031 109.344,-49.224 109.344,-109.364 V 164.504 C 77.79,156.294 48.25,146.292 19.433,134.654 l 15.194,54.797 c 1.387,5.049 0.215,10.346 -3.219,14.373 -3.082,3.613 -7.762,5.468 -12.511,5.468 H -2.227 l 10.234,36.785 c 0.559,0.147 0.703,0.184 1.262,0.331 l 2.856,-2.856 c 9.921,-9.921 26.007,-9.921 35.929,0 L 62.7,258.198 c 4.966,4.966 4.966,13.016 0,17.982 L 39.063,252.543 c -4.956,-4.956 -12.991,-4.956 -17.947,0 l -2.856,2.856 C 11.549,262.11 2.447,265.88 -7.044,265.88 h -9.014 c -6.738,0 -13.2,-2.676 -17.964,-7.441 l -14.902,-14.902 c -4.966,-4.965 -4.966,-13.016 0,-17.981 l 23.89,23.89 c 2.381,2.381 5.609,3.718 8.976,3.718 h 9.012 c 1.266,0 2.51,-0.126 3.736,-0.325 l -15.651,-56.263 h 0.019 l -3.964,-14.296 c -0.354,-1.28 -1.519,-2.166 -2.847,-2.166 h -41.442 v -0.001 c 0,-7.022 5.692,-12.715 12.715,-12.715 h 28.728 c 7.042,0 13.219,4.698 15.101,11.484 l 4.905,17.694 h 25.265 c 1.267,0 2.01,-0.727 2.341,-1.162 0.335,-0.437 0.844,-1.359 0.509,-2.581 L 4.513,128.438 c -17.283,-7.375 -34.505,-15.437 -51.304,-24.009 -19.905,9.794 -40.275,18.807 -60.685,26.865 V 255.64 c 0,58.635 47.203,106.455 105.606,107.457 M 12.304,117.959 c 31.019,13.106 62.998,24.288 95.17,33.34 V 131.301 C 70.747,116.782 34.639,99.369 0.018,79.476 c -10.665,6.128 -21.591,12.105 -32.666,17.834 14.791,7.336 29.854,14.273 44.952,20.649 m -119.78,-10.484 v 10.116 c 19.494,-7.843 38.936,-16.515 57.906,-25.942 12.481,-6.222 24.846,-12.794 36.906,-19.583 -9.078,-5.435 -18.144,-11.127 -27.104,-16.978 -21.727,14.35 -44.211,27.719 -66.946,39.801 -0.484,4.132 -0.762,8.326 -0.762,12.586 m 214.95,0 c 0,-4.275 -0.279,-8.484 -0.767,-12.63 C 69.689,75.163 33.842,52.402 0.02,27.127 c -9.264,6.919 -18.738,13.699 -28.317,20.252 10.432,6.716 20.99,13.187 31.501,19.282 33.577,19.492 68.618,36.585 104.27,50.942 z M 0,375.829 c -66.274,0 -120.192,-53.917 -120.192,-120.189 V 107.475 c 0,-66.274 53.918,-120.192 120.192,-120.192 66.272,0 120.19,53.918 120.19,120.192 V 255.64 C 120.19,321.912 66.272,375.829 0,375.829"
             style="fill:#000000;fill-opacity:1;fill-rule:nonzero;stroke:none"
             id="path48" />
        </g>
      </g>
    </g>
  </g>
</svg>
