<?xml version="1.0" encoding="UTF-8" standalone="no"?>
<!-- Created with Inkscape (http://www.inkscape.org/) -->
<svg xmlns:dc="http://purl.org/dc/elements/1.1/" xmlns:cc="http://creativecommons.org/ns#" xmlns:rdf="http://www.w3.org/1999/02/22-rdf-syntax-ns#" xmlns:svg="http://www.w3.org/2000/svg" xmlns="http://www.w3.org/2000/svg" xmlns:sodipodi="http://sodipodi.sourceforge.net/DTD/sodipodi-0.dtd" xmlns:inkscape="http://www.inkscape.org/namespaces/inkscape" width="320" height="212.46274" id="svg9303" version="1.1" inkscape:version="0.48.4 r9939" sodipodi:docname="Nieuw document 30">
  <defs id="defs9305"/>
  <sodipodi:namedview id="base" pagecolor="#ffffff" bordercolor="#666666" borderopacity="1.0" inkscape:pageopacity="0.0" inkscape:pageshadow="2" inkscape:zoom="1.4" inkscape:cx="303.68568" inkscape:cy="59.108292" inkscape:document-units="px" inkscape:current-layer="layer1" showgrid="false" fit-margin-top="0" fit-margin-left="0" fit-margin-right="0" fit-margin-bottom="0" inkscape:window-width="1600" inkscape:window-height="837" inkscape:window-x="-8" inkscape:window-y="-8" inkscape:window-maximized="1"/>
  <metadata id="metadata9308">
    <rdf:RDF>
      <cc:Work rdf:about="">
        <dc:format>image/svg+xml</dc:format>
        <dc:type rdf:resource="http://purl.org/dc/dcmitype/StillImage"/>
        <dc:title/>
      </cc:Work>
    </rdf:RDF>
  </metadata>
  <g inkscape:label="Laag 1" inkscape:groupmode="layer" id="layer1" transform="translate(-168.57143,-308.98795)">
    <rect style="fill:#0f47af;fill-opacity:1;fill-rule:evenodd;stroke:none" id="rect9102" width="320" height="212.46274" x="168.57143" y="308.98795"/>
    <rect style="fill:#fcdd09;fill-opacity:1;fill-rule:evenodd;stroke:none" id="rect9104" width="320" height="162.12949" x="168.57143" y="335.07755"/>
    <path style="fill:#000000;fill-opacity:1;stroke:#000000;stroke-width:0;stroke-miterlimit:4;stroke-opacity:1;stroke-dasharray:none" d="m 363.97012,490.88106 c -0.6249,-0.2719 -1.4371,-0.8419 -1.8041,-1.2662 -0.4145,-0.4791 -0.5825,-0.8603 -0.674,-1.5298 -0.069,-0.5028 -0.07,-0.5042 -0.3787,-0.5042 -0.4586,0 -0.6256,-0.2056 -0.6256,-0.7704 0,-0.5309 0.2426,-1.3367 0.7159,-2.3772 0.7369,-1.6199 0.8026,-1.7912 0.687,-1.7904 -0.063,0 -0.9222,0.5276 -1.909,1.1717 -1.005,0.656 -2.104,1.301 -2.499,1.4666 -0.6282,0.2635 -0.7671,0.292 -1.2743,0.2609 -0.4098,-0.026 -0.6778,-0.096 -0.957,-0.2528 -0.3434,-0.1929 -1.0103,-0.8213 -1.2382,-1.167 -0.071,-0.1076 -0.1683,-0.1115 -0.7227,-0.03 -1.4965,0.2212 -2.2131,0.6465 -2.7797,1.6496 -0.1799,0.3185 -0.3284,0.6348 -0.33,0.7029 0,0.091 -0.033,0.081 -0.1193,-0.038 -0.077,-0.107 -0.1163,-0.5461 -0.1163,-1.2953 0,-1.0408 0.019,-1.1666 0.2348,-1.5383 0.3861,-0.6655 1.0602,-1.1635 2.2935,-1.6946 0.6035,-0.2599 1.3787,-0.6481 1.7227,-0.8626 0.762,-0.4751 0.7403,-0.468 3.0695,-1.008 1.8963,-0.4397 2.3269,-0.5743 2.5427,-0.7951 0.097,-0.099 0.088,-0.115 -0.054,-0.09 -1.135,0.2054 -2.7177,0.3738 -3.265,0.3475 -1.1081,-0.052 -1.3369,-0.4063 -1.1595,-1.7901 0.073,-0.5702 0.074,-0.8398 0,-0.9126 -0.1731,-0.1769 -1.0268,-0.3014 -1.7943,-0.2615 -0.9514,0.049 -1.5161,0.2777 -2.2801,0.9214 -0.6528,0.5502 -0.6283,0.5775 -0.3521,-0.3916 0.3783,-1.3278 1.576,-2.398 2.9515,-2.6373 0.2624,-0.046 1.2768,-0.1291 2.2541,-0.1855 1.6271,-0.094 1.8132,-0.091 2.2052,0.036 0.8093,0.2623 1.9368,1.3111 3.7222,3.4627 l 0.4446,0.5358 0.9999,0.1322 c 1.266,0.1672 2.2295,0.1676 3.123,0 3.0109,-0.5616 4.5527,-2.6914 5.1505,-7.115 0.061,-0.449 0.1291,-2.619 0.1537,-4.8728 l 0.044,-4.0633 -0.3189,-0.044 c -0.1754,-0.025 -0.8772,-0.1213 -1.5593,-0.2154 -3.1364,-0.4326 -5.042,-1.3111 -7.0553,-3.2522 -0.4039,-0.3896 -0.7757,-0.7085 -0.8259,-0.7085 -0.051,0 -0.6373,0.179 -1.3047,0.3977 -1.5511,0.5083 -2.1839,0.6446 -3.4212,0.7368 -2.429,0.1811 -4.3513,-0.2395 -6.4973,-1.4216 -0.9532,-0.5251 -1.5686,-0.9334 -3.6503,-2.4216 -0.8134,-0.5816 -1.5626,-1.1116 -1.665,-1.1781 -0.1973,-0.1281 0.022,0.2312 1.1029,1.8104 0.8362,1.2209 0.9917,1.6679 0.9901,2.8456 0,0.8393 -0.03,1.0163 -0.2078,1.301 -0.5747,0.9168 -1.4614,1.5932 -3.3687,2.5698 -1.5064,0.7713 -1.9254,1.0784 -2.26,1.6569 -0.2306,0.3986 -0.2667,0.5544 -0.2579,1.114 0.016,1.0197 0.5835,1.8839 1.5834,2.4114 0.2516,0.1327 0.4574,0.2547 0.4574,0.2712 0,0.1122 -2.3206,-0.5524 -2.9061,-0.8324 -0.6143,-0.2937 -1.8095,-1.2592 -2.1258,-1.7173 -0.5274,-0.7637 -0.7604,-2.1993 -0.4951,-3.0504 0.1862,-0.5973 0.5694,-1.3899 0.8601,-1.7787 0.1583,-0.212 0.2711,-0.3998 0.2505,-0.4173 -0.02,-0.017 -0.3555,0.092 -0.7443,0.2421 -1.581,0.6127 -2.6566,0.6097 -5.2386,-0.015 -2.8097,-0.6791 -3.7017,-0.7612 -4.5379,-0.4177 -0.8801,0.3615 -1.0856,0.7498 -1.0996,2.0776 l -0.011,0.7941 -0.4292,-0.7637 c -0.5807,-1.033 -0.7943,-1.7802 -0.7943,-2.7798 0,-0.7252 0.028,-0.8551 0.2824,-1.3074 0.8447,-1.5017 1.9775,-2.0493 4.4078,-2.1308 l 1.3032,-0.044 -0.5286,-0.5289 c -0.866,-0.8662 -1.3615,-2.004 -1.2131,-2.7852 0.088,-0.4645 1.0239,-1.0998 1.3601,-0.9235 0.049,0.026 0.3171,0.3765 0.5959,0.7796 0.9321,1.3476 1.9874,2.2458 3.1985,2.7222 0.7003,0.2755 1.8544,0.39 2.8298,0.2806 1.8094,-0.2028 3.4992,-1.3925 4.1649,-2.9327 0.4327,-1.0011 0.4339,-2.2401 0,-3.3252 -0.4358,-1.0976 -0.7627,-1.4522 -3.5706,-3.8709 -2.3033,-1.9841 -2.8362,-2.5469 -3.4884,-3.6837 -0.7306,-1.2737 -0.8956,-1.8817 -0.8907,-3.279 0,-1.2419 0.04,-1.4604 0.5706,-3.5427 0.1846,-0.7239 0.3129,-1.3471 0.2853,-1.3849 -0.027,-0.037 0.015,-0.5021 0.094,-1.0318 0.5602,-3.7372 -0.6501,-6.6484 -3.9869,-9.5908 -0.8456,-0.7457 -1.4043,-0.992 -2.6806,-1.1818 -0.8598,-0.1278 -1.2535,-0.1311 -4.8181,-0.04 -4.0555,0.1025 -5.5916,0.063 -7.3193,-0.1902 -4.3485,-0.6374 -7.2161,-2.4852 -8.9755,-5.7838 l -0.4986,-0.9345 2.1147,-0.048 c 1.6278,-0.036 2.2099,-0.078 2.5278,-0.1808 1.3401,-0.4327 2.4297,-1.1999 3.1058,-2.1864 0.2036,-0.2972 0.4203,-0.5404 0.4814,-0.5404 0.061,0 0.4359,-0.1809 0.8328,-0.4021 0.818,-0.4557 1.6696,-1.1952 2.0862,-1.8116 0.1552,-0.2297 0.2827,-0.3576 0.2831,-0.2844 0,0.3627 -0.4475,1.2753 -1.037,2.1027 -0.361,0.5069 -0.6509,0.9272 -0.644,0.9338 0.019,0.019 2.8195,-0.5202 3.3516,-0.6455 1.7384,-0.4094 3.0728,-1.1232 3.9183,-2.096 0.8589,-0.9884 1.1589,-1.9249 1.4728,-4.5977 0.2035,-1.734 0.4241,-2.7052 0.7536,-3.3195 l 0.1955,-0.3643 -0.067,0.3239 c -0.2198,1.062 0.045,2.5858 0.7182,4.1291 0.5135,1.1775 1.711,3.221 1.8573,3.1695 0.066,-0.023 0.2807,-0.086 0.4774,-0.1411 0.1969,-0.054 0.3578,-0.1268 0.3578,-0.1607 0,-0.034 -0.094,-0.3835 -0.2087,-0.7766 -0.1632,-0.559 -0.2075,-0.9443 -0.2031,-1.7673 0.011,-1.1729 0.174,-1.8611 0.7019,-2.8817 0.2675,-0.5169 1.1999,-1.9356 1.2723,-1.9356 0.016,0 0.011,0.6467 -0.015,1.4371 -0.034,1.1221 -0.011,1.5934 0.1151,2.1503 0.414,1.8628 1.4485,3.2053 3.2799,4.2565 0.506,0.2904 0.6637,0.3412 0.9963,0.3208 l 0.3951,-0.024 0.2687,0.7928 c 1.5274,4.5085 4.6709,8.1413 9.6169,11.114 1.962,1.1792 4.659,2.4586 7.056,3.3469 3.1912,1.1827 4.9459,1.9934 6.7036,3.0975 1.9462,1.2224 3.2962,2.6883 3.9872,4.3296 0.168,0.3988 0.2721,0.5255 0.5105,0.6208 0.5023,0.201 1.4799,0.3177 2.7323,0.3261 1.1516,0.011 1.2227,0 2.0681,-0.2815 1.1151,-0.3686 1.6473,-0.645 3.0345,-1.5752 0.6172,-0.414 1.1746,-0.7355 1.2387,-0.7147 0.065,0.02 0.2736,0.2631 0.4655,0.5383 0.3025,0.434 0.3488,0.5683 0.3488,1.0124 0,0.64 -0.1396,0.8754 -0.9321,1.5726 l -0.6168,0.5425 0.2735,0.065 c 0.1505,0.036 1.3254,0.065 2.6111,0.065 2.5679,0 3.1887,-0.073 4.4869,-0.5272 0.9035,-0.3162 1.4402,-0.6406 2.3347,-1.4113 1.2057,-1.0387 1.7167,-2.0239 1.8503,-3.5668 0.2745,-3.1699 -0.908,-6.2116 -3.2945,-8.4741 -2.3032,-2.1834 -4.6552,-3.2224 -7.316,-3.2316 -1.8504,-0.011 -3.609,0.5168 -4.6474,1.3829 -0.6425,0.536 -0.9294,1.0134 -1.012,1.6845 -0.034,0.2758 -0.092,0.5015 -0.1257,0.5015 -0.208,0 -0.8478,-1.0123 -1.1958,-1.892 -0.7015,-1.7733 0.1611,-3.5522 2.3016,-4.7464 1.0697,-0.5966 2.1498,-0.8808 4.1653,-1.0961 l 0.4575,-0.049 -0.8247,-0.4395 c -0.9313,-0.4961 -1.5731,-0.9115 -4.622,-2.9916 -2.9679,-2.0249 -4.0459,-2.6167 -5.5336,-3.0378 -0.7963,-0.2254 -2.1015,-0.199 -2.7668,0.055 -0.9224,0.3533 -1.808,1.1606 -2.7491,2.5059 -0.3082,0.4405 -0.6208,0.8011 -0.6946,0.8011 -0.1785,0 -0.7041,-0.8366 -0.9545,-1.5194 -0.1705,-0.4646 -0.1952,-0.6983 -0.1632,-1.5382 0.036,-0.9332 0.057,-1.0233 0.3662,-1.5573 0.4948,-0.8543 1.7737,-1.9121 2.9071,-2.4047 1.4881,-0.6467 2.0383,-0.7529 3.864,-0.7459 1.0381,0.011 1.818,0.049 2.2898,0.1333 0.3935,0.069 0.7324,0.1134 0.753,0.097 0.02,-0.017 -0.058,-0.4049 -0.1739,-0.8624 -1.6254,-6.3988 -2.0948,-9.069 -2.1738,-12.3688 -0.1075,-4.4865 0.5562,-7.3306 2.4617,-10.5467 1.7876,-3.0173 4.4779,-5.654 8.2921,-8.1271 0.551,-0.3573 1.2809,-0.807 1.622,-0.9991 0.3411,-0.1923 0.8178,-0.4707 1.0595,-0.6188 l 0.4393,-0.2692 -0.4072,-0.953 c -0.2238,-0.5242 -0.478,-1.2446 -0.5647,-1.6008 -0.2081,-0.8539 -0.2093,-2.1954 0,-2.8749 0.5244,-1.7249 2.1089,-3.0241 4.8661,-3.9901 1.0314,-0.3615 3.0029,-0.8705 4.184,-1.0805 2.0598,-0.3662 3.0665,-0.8425 3.5313,-1.6708 0.4965,-0.8844 0.3844,-1.8845 -0.3558,-3.1756 -0.6694,-1.1676 -1.4864,-2.0618 -3.2734,-3.5825 -1.8707,-1.5921 -1.8675,-1.4965 -0.043,-1.2716 3.038,0.3747 4.806,0.9712 7.8749,2.6567 0.7825,0.4297 1.4467,0.7609 1.4762,0.736 0.029,-0.026 0.1423,-0.2528 0.2512,-0.5063 0.6946,-1.6183 2.4089,-3.0771 4.2269,-3.5967 1.035,-0.2958 3.6903,-0.254 3.6903,0.058 0,0.044 -0.2051,0.1046 -0.4558,0.1352 -1.234,0.1498 -2.4373,1.2399 -3.0243,2.7399 -0.1685,0.4308 -0.2221,0.8417 -0.2956,2.2669 -0.1,1.9237 -0.191,2.4457 -0.5304,3.0159 -0.126,0.2114 -0.2125,0.3845 -0.1924,0.3845 0.02,0 0.4393,-0.161 0.9317,-0.3579 1.1033,-0.4411 1.8335,-0.5687 2.926,-0.5109 0.9359,0.05 1.7958,0.2561 2.8687,0.6892 l 0.7297,0.2947 -1.1925,0.044 c -1.0529,0.04 -1.2567,0.07 -1.7391,0.2713 -1.0914,0.4537 -1.9743,1.6281 -2.1715,2.8888 -0.1872,1.1961 -0.5713,1.8544 -1.747,2.9946 -0.6737,0.6533 -0.6757,0.7254 -0.019,0.7295 0.5812,0.011 1.8527,0.4153 2.621,0.8487 1.2237,0.6904 2.1562,1.8756 2.7081,3.4424 0.3096,0.879 0.8425,3.2005 0.8054,3.5086 -0.027,0.2191 -0.067,0.1883 -0.5739,-0.4476 -2.2147,-2.7729 -5.3535,-4.5325 -8.4689,-4.7477 -1.1182,-0.077 -1.8623,0.011 -2.5962,0.2834 -0.8553,0.3257 -1.2322,0.7412 -1.6595,1.8296 -1.2149,3.0938 -2.9971,4.3986 -6.6224,4.8484 -0.5294,0.066 -1.8782,0.097 -3.885,0.092 l -3.0742,-0.011 -1.1594,1.147 c -3.8769,3.835 -5.9731,7.0047 -7.0468,10.6557 -0.5916,2.0115 -0.7935,3.7483 -0.669,5.7525 0.1753,2.8232 0.9045,5.3266 2.4528,8.4201 0.8684,1.7348 2.9738,5.0496 4.4396,6.9896 l 0.4793,0.6341 0.2823,-0.3913 c 0.844,-1.1695 2.5035,-2.0284 4.7878,-2.4779 1.1887,-0.2338 3.6808,-0.248 5.0621,-0.029 3.0108,0.4778 4.9857,1.7136 5.1708,3.2358 0.045,0.3723 -0.085,1.1574 -0.2281,1.3698 -0.023,0.034 -0.3282,-0.1569 -0.6792,-0.4235 -0.9552,-0.7257 -1.6182,-1.131 -2.3076,-1.4104 -0.5562,-0.2255 -0.7086,-0.251 -1.4788,-0.2466 -0.6683,0.011 -0.9613,0.044 -1.3215,0.1812 -0.6102,0.2326 -1.7459,1.2116 -2.1336,1.8392 -0.7785,1.2603 -1.1,2.8463 -0.9067,4.4725 0.2522,2.1213 0.8364,3.1859 3.4102,6.2133 2.3793,2.7986 3.4834,4.4867 4.3685,6.6793 0.3648,0.9035 0.4534,1.5477 0.4492,3.2646 0,1.7807 -0.089,2.2253 -0.6604,3.4654 -0.6741,1.4633 -1.7332,2.8738 -3.3099,4.4083 -0.397,0.3863 -0.7647,0.7825 -0.8173,0.8805 -0.082,0.1523 0.012,0.319 0.6462,1.1436 1.9735,2.5684 2.3912,3.99 1.6584,5.6453 -0.2242,0.5065 -0.9199,1.4203 -1.5128,1.9869 l -0.3681,0.3519 -0.055,-1.1614 c -0.031,-0.6435 -0.1194,-1.3567 -0.1997,-1.5993 -0.4387,-1.3257 -1.6583,-2.8073 -3.0784,-3.74 l -0.4911,-0.3226 -0.8445,0.2011 c -3.2211,0.767 -4.5402,0.9059 -7.3977,0.7794 -1.2691,-0.055 -1.7061,-0.1089 -2.3674,-0.2858 -1.0909,-0.2918 -3.1087,-1.1203 -4.0975,-1.6821 -0.4432,-0.252 -0.8215,-0.4447 -0.8406,-0.4285 -0.019,0.016 0.5184,0.6618 1.1943,1.4347 1.361,1.5559 3.2665,3.9141 3.7194,4.6031 0.3294,0.5012 0.5968,1.2035 0.5968,1.5679 0,0.3751 -0.3643,0.9302 -0.7509,1.1442 -0.1905,0.1057 -0.722,0.2742 -1.1811,0.3752 -0.4592,0.1014 -0.8348,0.2038 -0.8347,0.2282 0,0.025 0.8909,0.7438 1.9798,1.5987 1.0886,0.8548 2.2358,1.7747 2.549,2.0443 l 0.5694,0.4899 -0.4263,0 c -0.2345,0 -0.8698,-0.05 -1.4115,-0.1056 l -0.9852,-0.1025 0.058,0.2882 c 0.096,0.4786 0.7695,1.553 1.3943,2.2253 1.0943,1.1779 2.7358,2.4382 4.6262,3.5524 0.8733,0.5146 2.988,1.5947 3.1223,1.5947 0.049,0 0.3525,-0.1772 0.6748,-0.3938 0.7673,-0.5156 1.0571,-0.6346 1.7897,-0.7355 1.3579,-0.187 2.4368,-0.076 3.4803,0.3583 1.2765,0.5313 2.7621,1.7206 3.2457,2.5986 0.4835,0.878 0.555,1.9562 0.1728,2.6069 -0.3384,0.5764 -0.9195,0.9667 -2.4879,1.6717 -0.011,0.011 -0.321,1.0994 -0.6953,2.4353 -0.3744,1.3358 -0.7113,2.4901 -0.7488,2.565 -0.037,0.075 -0.5067,0.4128 -1.043,0.7512 -0.888,0.5602 -0.9707,0.6348 -0.9272,0.8354 0.1875,0.8646 0.5827,3.3129 0.5473,3.3911 -0.024,0.052 -0.5018,0.3983 -1.0616,0.7672 -1.6814,1.1077 -1.9914,1.3522 -3.0828,2.4307 -1.3069,1.2917 -1.9673,1.8012 -2.7369,2.1121 -0.5047,0.2038 -0.6796,0.2361 -1.0669,0.1971 -0.5087,-0.051 -1.0576,-0.261 -1.7164,-0.6563 -0.2362,-0.1417 -0.4877,-0.2877 -0.5592,-0.3245 -0.071,-0.036 0.1667,0.2567 0.5288,0.6519 1.5302,1.6698 2.0313,2.4063 2.033,2.988 0,0.1793 -0.067,0.4076 -0.1489,0.5074 -0.2212,0.2682 -0.9543,0.5528 -1.809,0.7027 -0.4152,0.073 -0.7642,0.1403 -0.7756,0.15 -0.011,0.011 -0.086,0.2838 -0.1661,0.6092 -0.197,0.8016 -0.5288,1.3848 -1.064,1.8704 -0.6968,0.6321 -1.7128,0.9656 -3.3342,1.0946 l -0.6678,0.053 0.6302,-0.3636 c 0.6322,-0.3646 1.0735,-0.7663 1.3547,-1.2332 0.1514,-0.2509 0.4087,-1.3078 0.3342,-1.3712 -0.021,-0.019 -0.2613,0.093 -0.5318,0.2474 -1.0715,0.6123 -1.5074,0.2248 -1.9916,-1.7711 -0.1313,-0.5412 -0.2746,-1.0152 -0.3184,-1.0533 -0.044,-0.038 -0.1301,0.144 -0.1916,0.4047 -0.3668,1.5543 -0.6557,2.2562 -1.1446,2.7799 -0.5608,0.601 -1.4169,0.8897 -2.6429,0.8914 -0.9846,0 -1.0821,0.051 -1.5151,0.7751 -0.3464,0.579 -0.3754,0.6789 -0.3754,1.2921 0,0.6084 0.031,0.7144 0.3574,1.2561 0.1965,0.3253 0.3467,0.6001 0.3338,0.6106 -0.012,0.011 -0.1951,-0.055 -0.405,-0.1469 z m -78.2821,-15.3056 c 0,-0.058 0.2396,-0.3031 0.5324,-0.5465 0.7639,-0.6351 0.9257,-0.9387 0.9749,-1.8297 0.058,-1.0504 0.073,-1.0382 -1.2378,-1.0511 -1.4412,-0.015 -2.4664,-0.3153 -3.3312,-0.9784 -0.5042,-0.3866 -0.7711,-0.7869 -1.2356,-1.854 -0.3453,-0.7932 -0.379,-0.8412 -0.3327,-0.4755 0.097,0.7675 0.068,2.7448 -0.044,2.9935 -0.282,0.6271 -0.8227,0.8496 -2.2093,0.9094 -0.8947,0.038 -2.6332,-0.076 -3.0067,-0.1969 -0.2957,-0.096 -0.071,1.5033 0.2803,1.9997 0.1098,0.1559 0.3536,0.4444 0.5403,0.641 l 0.3395,0.3576 -0.2862,-0.055 c -0.5268,-0.1025 -1.8694,-0.7229 -2.3398,-1.0816 -0.7288,-0.5562 -0.9523,-1.0325 -1.0847,-2.3124 -0.103,-0.9967 -0.1347,-1.1084 -0.4296,-1.5151 -0.4261,-0.5877 -0.5824,-0.9892 -0.5824,-1.4966 0,-0.3576 0.058,-0.4962 0.3769,-0.9007 0.2074,-0.2629 0.6261,-0.7115 0.9303,-0.9968 0.3043,-0.2852 0.5098,-0.5038 0.4567,-0.4857 -0.053,0.018 -0.8506,0.3567 -1.7723,0.7525 -1.5692,0.6741 -1.7203,0.7221 -2.3839,0.7579 -0.9286,0.05 -1.3761,-0.062 -2.0956,-0.5273 -1.0092,-0.652 -0.9481,-0.633 -1.6925,-0.5247 -1.4034,0.2041 -2.2205,0.7125 -2.7629,1.7186 -0.4136,0.767 -0.5103,0.6648 -0.5149,-0.5451 0,-0.8873 0.1053,-1.4868 0.3398,-1.8704 0.1929,-0.3158 1.2855,-1.1777 1.7455,-1.3768 l 0.3989,-0.1727 -0.057,-0.6716 c -0.1121,-1.3438 0.3124,-1.5721 3.8814,-2.0897 1.8455,-0.2676 2.1944,-0.3423 2.1944,-0.47 0,-0.043 -0.2491,-0.2056 -0.5536,-0.3625 -1.075,-0.5541 -2.0152,-1.5823 -2.0204,-2.2093 0,-0.3043 -0.2793,-0.4756 -1.2993,-0.8031 -1.2102,-0.3887 -2.4201,-0.2716 -3.4184,0.3307 -0.2584,0.156 -0.5093,0.2835 -0.5577,0.2835 -0.049,0 0.051,-0.2095 0.2193,-0.4655 0.824,-1.2495 1.6309,-1.9384 2.5524,-2.1792 0.9664,-0.2525 3.3732,-0.051 4.5635,0.3816 l 0.4538,0.1651 1.2241,-0.1654 c 2.0837,-0.2815 3.2577,-0.2071 3.7259,0.2364 0.393,0.3721 0.3625,0.962 -0.1282,2.4791 -0.2148,0.6643 -0.4137,1.3963 -0.4419,1.6267 l -0.051,0.4191 0.3703,0.082 c 0.2036,0.045 1.0768,0.1409 1.9403,0.2124 l 1.5698,0.13 0.7199,-0.4225 c 2.5375,-1.4891 6.6292,-3.7704 7.6509,-4.2656 3.7577,-1.8213 6.3966,-2.5826 8.1501,-2.3509 l 0.6529,0.086 0.2158,-0.2296 c 0.2953,-0.3143 0.6775,-1.2192 0.8016,-1.8977 0.1184,-0.6475 0.014,-1.409 -0.3118,-2.2725 l -0.2023,-0.5362 -1.1062,-0.055 c -0.6084,-0.031 -1.4282,-0.1114 -1.8217,-0.1789 -2.1704,-0.3728 -3.1672,-1.5205 -3.6287,-4.1778 -0.067,-0.3896 -0.1539,-0.7084 -0.1919,-0.7084 -0.037,0 -0.1636,0.1979 -0.2793,0.4396 -0.3116,0.6517 -1.0742,1.5923 -1.6579,2.045 -0.5771,0.4477 -1.5671,0.9164 -2.3452,1.1104 -0.8323,0.2075 -2.1347,0.1684 -3.7752,-0.1137 -1.5872,-0.2727 -2.6292,-0.3091 -3.483,-0.1212 -1.142,0.251 -2.1008,0.9031 -2.9777,2.0249 l -0.597,0.7636 -0.1443,-0.2204 c -0.114,-0.174 -0.1444,-0.527 -0.1439,-1.6777 0,-1.3856 0.012,-1.4812 0.2461,-1.9431 0.1352,-0.2672 0.4892,-0.8058 0.7866,-1.197 0.2975,-0.3911 0.541,-0.7519 0.541,-0.8015 0,-0.064 -0.3227,-0.075 -1.1231,-0.036 -4.0425,0.1938 -5.6645,0.9062 -6.8907,3.0263 l -0.358,0.6189 -0.1459,-0.2394 c -0.3615,-0.5932 -0.4879,-1.1933 -0.4931,-2.3423 -0.011,-1.0939 0,-1.1488 0.2668,-1.5721 0.9996,-1.6114 3.1633,-2.5342 7.2359,-3.0858 0.771,-0.1046 1.3822,-0.2166 1.3585,-0.2494 -0.024,-0.033 -0.1688,-0.083 -0.3221,-0.1114 -0.3906,-0.073 -1.0961,-0.6242 -1.3355,-1.0437 -0.6145,-1.0773 -0.1327,-2.7542 1.0992,-3.825 0.4824,-0.4194 1.3127,-0.9211 1.5244,-0.9211 0.061,0 0.2523,0.2277 0.4248,0.506 1.2319,1.9872 2.7876,3.3463 4.8229,4.2133 1.2097,0.5152 1.5342,0.5613 3.6969,0.5257 l 1.9264,-0.032 0.9077,-0.2888 c 3.1634,-1.0063 5.3885,-2.5281 6.781,-4.6375 1.9795,-2.9984 3.1516,-4.0414 6.0978,-5.4255 2.8607,-1.3441 5.1705,-1.8766 14.5496,-3.3549 3.4108,-0.5375 7.1885,-1.1383 8.395,-1.3349 1.7678,-0.2883 2.2321,-0.3396 2.3932,-0.2641 0.1098,0.051 0.8321,0.4398 1.6048,0.8628 l 1.4049,0.7692 -0.041,0.6071 c -0.1235,1.8314 0.6349,3.2343 2.0711,3.8311 0.6682,0.2776 1.7372,0.4146 2.4663,0.3158 l 0.5487,-0.075 0,0.2104 c 0,0.2344 -0.2706,1.893 -0.3083,1.9038 -0.3426,0.098 -1.0331,0.4911 -1.3132,0.7477 -0.7092,0.6496 -1.033,1.3844 -1.4391,3.2668 -0.3359,1.5568 -0.6623,2.4224 -1.2426,3.2962 -0.597,0.8986 -1.1176,1.3162 -1.9785,1.5868 l -0.702,0.2206 -1.2394,-1.0191 c -0.6818,-0.5605 -1.2575,-1.0037 -1.2794,-0.9851 -0.021,0.019 0.029,0.4311 0.1144,0.9163 0.3189,1.8211 0.068,3.1341 -0.8086,4.2295 -0.7794,0.974 -1.7581,1.4808 -4.399,2.2783 -2.0769,0.6271 -2.6483,0.8812 -3.3803,1.5031 -0.6879,0.5845 -1.0874,1.2173 -1.2971,2.0546 -0.2006,0.8009 -0.3144,0.818 -1.2493,0.1869 -0.8176,-0.5518 -1.0781,-0.822 -1.5358,-1.5923 l -0.3336,-0.5614 -0.1226,0.4399 c -0.5526,1.9815 -1.552,3.4774 -3.5666,5.3382 l -1.0957,1.012 0.2547,0.162 c 0.5971,0.3794 1.5986,1.198 1.9519,1.5953 1.7886,2.0111 0.7287,4.2403 -2.3149,4.8686 -0.8566,0.1768 -2.0844,0.2963 -3.0435,0.2963 l -0.8064,0 -1.6767,1.4534 -1.6766,1.4533 -1.9559,0.1202 -1.9559,0.1202 -1.7616,0.7031 -1.7616,0.7033 -2.6689,-0.2914 c -1.468,-0.1602 -2.6847,-0.2781 -2.7038,-0.2619 -0.019,0.016 0.3385,0.4235 0.7949,0.9048 1.1682,1.2324 1.2215,1.3548 1.1589,2.6607 -0.076,1.5675 -0.4415,2.7172 -1.0656,3.3441 -0.3673,0.3687 -1.2884,0.7832 -2.2831,1.0272 -0.9741,0.2389 -1.0149,0.2431 -1.0149,0.1035 z m -22.7185,-42.2262 c -1.2928,-0.7199 -2.0096,-1.5675 -2.1436,-2.535 -0.07,-0.5058 0.017,-0.9009 0.4627,-2.1192 l 0.2915,-0.7955 -0.2069,-0.4998 c -0.2631,-0.6358 -0.2591,-0.7536 0.043,-1.2367 0.3464,-0.5541 0.9693,-1.1513 1.9086,-1.8301 0.4419,-0.3192 0.7707,-0.6059 0.7306,-0.637 -0.04,-0.031 -0.5635,-0.155 -1.1634,-0.2752 l -1.0907,-0.2186 -0.8905,0.7806 c -0.9314,0.8165 -1.4413,1.0908 -2.0324,1.0934 -0.6571,0 -1.1571,-0.4223 -1.8072,-1.5361 -0.1689,-0.2895 -0.3418,-0.581 -0.3842,-0.6478 -0.1731,-0.2725 -1.6284,-0.012 -2.4008,0.43 -0.4471,0.2555 -0.9814,0.8854 -1.1872,1.399 -0.267,0.6666 -0.3743,0.4368 -0.3743,-0.8007 0,-1.4615 0.1018,-1.734 0.8997,-2.4068 0.4915,-0.4145 0.8325,-0.6121 1.5807,-0.9158 0.5249,-0.213 1.0178,-0.4159 1.0957,-0.451 0.078,-0.035 0.2158,-0.3401 0.3077,-0.6828 0.3177,-1.1823 0.717,-1.5916 1.553,-1.5916 0.6535,0 0.9354,0.091 2.2434,0.7194 2.438,1.1721 3.4133,1.5306 3.5719,1.3128 0.03,-0.041 -0.5941,-0.6687 -1.3851,-1.3966 -1.6265,-1.497 -2.2111,-2.1449 -2.5321,-2.8076 -0.2746,-0.5664 -0.2848,-0.9276 -0.036,-1.2695 l 0.1914,-0.2628 -0.3779,-0.2898 c -0.8548,-0.6553 -1.7331,-0.8609 -2.8546,-0.6681 -0.9939,0.1709 -1.1254,0.1699 -0.9545,-0.011 0.2278,-0.236 1.6408,-1.0961 2.0649,-1.2571 1.3352,-0.5065 2.6376,-0.2971 4.6427,0.7464 l 0.7871,0.4095 1.157,-0.055 c 0.975,-0.047 1.2249,-0.033 1.5882,0.084 0.7682,0.2491 0.9151,0.5719 1.1372,2.5003 0.071,0.6151 0.1798,1.1616 0.2423,1.2145 0.083,0.069 0.833,0.094 2.756,0.089 2.9293,-0.011 3.8275,-0.1035 5.6509,-0.605 2.0309,-0.558 3.4657,-1.3276 5.0673,-2.7184 1.3349,-1.159 1.9028,-1.8353 2.6669,-3.1758 1.4028,-2.4613 1.5791,-2.7448 2.2214,-3.5726 0.3622,-0.4671 1.0692,-1.2867 1.5712,-1.8216 0.9363,-0.9979 3.7098,-3.411 5.6234,-4.893 l 1.0768,-0.834 0.6037,0.054 c 0.8678,0.079 2.4121,-0.088 3.4295,-0.3694 1.7166,-0.4758 2.9849,-1.1811 4.7198,-2.6248 0.6462,-0.5378 1.1504,-0.903 1.1204,-0.8115 -0.437,1.3324 -0.178,2.7101 0.8976,4.777 0.7552,1.4509 0.8973,1.8852 0.9023,2.7569 0,0.6187 -0.033,0.7964 -0.2426,1.178 -0.4338,0.7895 -1.3035,1.3858 -2.9464,2.0198 -0.4943,0.1908 -0.616,0.2022 -2.0967,0.1972 -1.7052,-0.011 -1.6995,0.011 0.1886,0.3421 1.6316,0.2916 3.9624,0.3127 5.3588,0.048 2.6113,-0.4942 4.6761,-1.5063 7.3089,-3.5828 1.154,-0.9102 2.8072,-2.3828 2.5021,-2.2287 -0.079,0.04 -0.8958,0.4981 -1.8159,1.0183 -3.1091,1.7583 -4.9395,2.6462 -6.723,3.2617 -1.3884,0.4792 -3.8315,1.0886 -3.3508,0.8359 1.9517,-1.0258 2.6502,-2.2848 2.22,-4.001 -0.1392,-0.5556 -0.263,-0.8376 -1.1813,-2.6917 -0.7127,-1.4391 -0.8937,-2.8383 -0.5041,-3.8979 0.3487,-0.9478 1.2993,-1.8878 2.5336,-2.5053 0.7146,-0.3574 0.7802,-0.4236 0.6252,-0.6313 -0.067,-0.09 -0.26,-0.027 -0.9559,0.3113 -0.7078,0.3437 -1.1816,0.6765 -2.5146,1.7664 -2.1547,1.7615 -3.0906,2.4498 -3.9479,2.9032 -1.5872,0.8394 -3.0204,1.1603 -5.1903,1.162 l -1.3897,0 -0.1549,0.2756 -0.1548,0.2757 -1.2224,-6e-4 c -1.9345,0 -3.5234,0.3573 -5.9981,1.3527 -0.7186,0.2891 -1.3287,0.5255 -1.356,0.5255 -0.093,0 0.076,-1.272 0.2268,-1.7088 0.2791,-0.8058 0.7996,-1.5355 1.5597,-2.1866 0.6033,-0.5166 0.8821,-0.6835 1.7217,-1.0301 0.5725,-0.2363 1.5127,-0.5332 2.1942,-0.6929 1.5748,-0.369 1.7679,-0.4304 2.3853,-0.7585 1.1581,-0.6155 1.5205,-1.0837 1.6107,-2.0812 0.062,-0.6825 -0.011,-2.1923 -0.1076,-2.2755 -0.032,-0.027 -0.4478,0.2274 -0.9251,0.5646 -0.8717,0.6154 -1.3133,0.8584 -1.5606,0.8584 -0.1064,0 -0.1462,-0.3001 -0.1995,-1.518 -0.084,-1.9072 -0.1721,-2.4353 -0.585,-3.4825 -0.5742,-1.4563 -2.4275,-4.8623 -2.6853,-4.9352 -0.052,-0.015 -0.2111,0.3458 -0.352,0.8017 -0.4975,1.6112 -1.3982,2.8383 -2.4167,3.2928 -0.4975,0.2219 -0.508,0.1428 -0.133,-0.9907 0.4235,-1.2798 0.6107,-2.4386 0.6098,-3.7741 0,-1.3967 -0.1855,-2.3323 -0.6533,-3.3105 -0.7285,-1.5237 -1.5311,-2.404 -3.2654,-3.5824 -2.1235,-1.4426 -3.206,-2.4861 -3.8987,-3.7584 -0.581,-1.0673 -0.6367,-1.429 -0.5973,-3.8814 0.051,-3.1602 0.019,-3.7591 -0.1935,-3.6477 -0.049,0.026 -0.4644,0.547 -0.9238,1.1589 -1.003,1.3356 -1.7608,2.1615 -2.1329,2.3249 -0.1511,0.066 -0.5099,0.1438 -0.7977,0.1726 -0.4615,0.046 -0.6025,0.021 -1.1958,-0.2109 l -0.6727,-0.2631 -0.4619,0.2878 c -0.6385,0.3977 -1.4333,1.1274 -1.6254,1.4924 -0.1186,0.2252 -0.1607,0.54 -0.1624,1.2103 l 0,0.9059 -0.2228,-0.1773 c -0.296,-0.2352 -1.0064,-1.1503 -1.1984,-1.5433 -0.1019,-0.2098 -0.1531,-0.5583 -0.1531,-1.0547 0,-0.6758 0.028,-0.7911 0.3211,-1.3057 0.2766,-0.4861 0.6271,-0.926 1.4286,-1.7929 0.1605,-0.1734 0.1653,-0.2383 0.057,-0.7556 -0.1698,-0.8068 -0.019,-1.3446 0.4837,-1.7304 0.4554,-0.3493 0.5964,-0.4111 2.1468,-0.9429 1.4297,-0.4903 2.3782,-0.88 2.7192,-1.1171 0.2116,-0.1471 0.2223,-0.1793 0.095,-0.2849 -0.2304,-0.1918 -1.9657,-0.782 -2.299,-0.782 -0.1678,0 -0.8345,0.2018 -1.4816,0.4484 -1.6783,0.6393 -2.3598,0.8441 -2.9984,0.9007 -0.9429,0.083 -1.2656,-0.224 -1.4346,-1.3678 -0.054,-0.3661 -0.1087,-0.674 -0.1202,-0.6843 -0.012,-0.011 -0.3878,0.046 -0.8347,0.125 -1.022,0.1808 -1.6002,0.4165 -2.0446,0.8341 -0.3456,0.3245 -0.9035,1.2138 -0.9037,1.4401 0,0.094 -0.024,0.097 -0.1192,0.016 -0.085,-0.072 -0.1193,-0.4407 -0.1193,-1.259 l 0,-1.1578 0.3342,-0.5571 c 0.2854,-0.4757 0.4356,-0.6188 1.027,-0.9781 0.3811,-0.2316 1.0453,-0.5419 1.4762,-0.6897 1.4939,-0.5123 1.5106,-0.5232 1.746,-1.1509 0.2431,-0.6482 0.4923,-0.854 1.0372,-0.8566 0.4712,0 0.877,0.1984 2.564,1.2677 0.7253,0.4595 1.3777,0.8355 1.4502,0.8355 0.072,0 0.8958,-0.1093 1.8298,-0.2429 0.9339,-0.1335 1.7095,-0.2428 1.7236,-0.2428 0.014,0 0.026,-0.034 0.026,-0.076 0,-0.042 -0.4433,-0.367 -0.985,-0.7231 -1.1205,-0.7363 -2.2081,-1.6219 -2.6192,-2.1328 -0.3616,-0.4493 -0.5635,-0.9914 -0.6856,-1.8409 -0.054,-0.3762 -0.1307,-0.7108 -0.1702,-0.7438 -0.04,-0.033 -0.4145,-0.1761 -0.8331,-0.3181 -0.5548,-0.1881 -0.971,-0.2692 -1.535,-0.299 -0.9107,-0.048 -1.2308,0.026 -2.0489,0.4746 -0.3247,0.178 -0.61,0.3069 -0.6341,0.2865 -0.061,-0.051 0.472,-0.9478 0.8154,-1.3713 0.3866,-0.4769 0.9984,-0.9317 1.5285,-1.1364 0.6351,-0.2454 2.4048,-0.2795 3.5852,-0.069 l 0.8545,0.1522 0.4289,-0.2308 c 1.0707,-0.5763 2.2056,-0.7245 3.0117,-0.3932 0.6965,0.2861 1.1161,0.7957 2.3001,2.7942 1.1075,1.8696 1.5273,2.46 1.6597,2.3344 0.04,-0.037 0.1429,-0.3225 0.2307,-0.6342 0.3537,-1.2573 1.0955,-2.0971 2.0694,-2.3426 0.6403,-0.1613 0.8988,-0.1579 1.9219,0.025 0.4579,0.082 0.8589,0.1267 0.8909,0.099 0.2469,-0.2079 0.6156,-1.3981 0.6259,-2.0202 0.011,-0.5949 -0.2373,-1.0941 -0.8358,-1.6887 -0.2416,-0.24 -0.4177,-0.4549 -0.391,-0.4774 0.091,-0.078 1.5997,0.4666 2.1163,0.7637 0.7119,0.4092 1.1608,0.9158 1.4032,1.5838 0.1863,0.5136 0.1975,0.6717 0.1399,1.9836 -0.051,1.1444 -0.034,1.5134 0.082,1.8709 0.086,0.2642 0.1439,0.7938 0.1446,1.3026 0,0.7954 -0.02,0.8933 -0.2906,1.3529 -0.5299,0.8997 -1.0737,1.1197 -2.5705,1.0397 l -0.9064,-0.048 -0.5185,1.0203 c -0.597,1.1751 -0.6301,0.9975 0.3754,2.0125 0.9538,0.9628 1.37,1.4582 1.7913,2.1329 1.3346,2.1377 1.1394,3.8139 -0.6975,5.9903 -0.351,0.4157 -0.6012,0.784 -0.5559,0.8182 0.045,0.034 0.576,0.2364 1.1794,0.4492 2.0542,0.7246 3.9604,1.5897 5.1427,2.3335 0.9291,0.5847 2.6201,1.8031 3.0444,2.1939 0.2248,0.2068 0.4462,0.3566 0.4918,0.3327 0.046,-0.024 0.2892,0.2209 0.5413,0.5441 0.2757,0.3536 1.1434,1.1713 2.1784,2.0529 2.0843,1.7756 3.143,2.4392 5.3455,3.3503 1.3612,0.563 5.3061,1.9447 5.5525,1.9447 0.052,0 0.3921,-0.223 0.7542,-0.4956 2.6207,-1.9739 5.2623,-2.7706 9.8963,-2.985 3.3768,-0.1563 6.7706,0.073 11.3221,0.763 3.2011,0.4856 3.1073,0.4751 3.3326,0.3728 0.2339,-0.1067 0.6849,-0.8335 0.9024,-1.4549 0.5329,-1.5233 -0.4832,-3.0059 -2.6388,-3.8499 -1.0804,-0.423 -1.8628,-0.5334 -4.1466,-0.5844 l -2.0257,-0.045 -0.6351,0.5041 c -1.7642,1.4005 -4.0045,2.4248 -5.3159,2.4307 l -0.2709,0 0.2515,-0.2537 c 1.1143,-1.1237 1.0379,-2.3417 -0.2975,-4.7559 -0.2802,-0.5065 -0.5095,-0.9671 -0.5095,-1.0235 0,-0.1352 0.1562,-0.1804 0.8522,-0.2473 0.3183,-0.031 0.5847,-0.078 0.5919,-0.1056 0.011,-0.028 0.04,-0.6297 0.071,-1.3379 l 0.059,-1.2878 0.8109,0.8801 0.8111,0.8802 0.059,-0.9283 c 0.032,-0.5107 0.065,-1.0706 0.071,-1.2445 l 0.012,-0.3162 0.2012,0.1543 c 0.1109,0.084 0.4766,0.4533 0.8131,0.8188 0.6538,0.7102 0.6184,0.6941 1.7129,0.783 0.7295,0.059 1.4809,0.3132 2.7684,0.9359 2.0269,0.9802 2.7254,1.1632 4.4777,1.1726 1.148,0.011 1.1481,0.011 1.7042,-0.2772 0.9992,-0.5092 1.6939,-1.3692 1.8179,-2.2504 l 0.061,-0.4287 -0.9818,-0.3901 c -1.2733,-0.5058 -2.0872,-0.7517 -3.3192,-1.0032 -2.5731,-0.5251 -5.0468,-0.5581 -7.4418,-0.099 -2.0184,0.3867 -3.7024,1.0304 -6.297,2.4067 -2.1094,1.1191 -3.0352,1.5224 -4.3267,1.8847 -3.1244,0.8768 -6.435,0.6655 -8.9376,-0.5706 -0.3397,-0.1677 -0.9509,-0.5864 -1.3586,-0.9306 -0.9849,-0.8316 -1.4351,-1.6078 -1.4365,-2.4768 0,-0.5312 0.037,-0.6456 0.4647,-1.3764 0.7104,-1.2159 1.7814,-2.0792 3.6968,-2.9795 l 0.6483,-0.3046 -0.4762,0.8039 c -1.295,2.1867 -1.2443,4.0317 0.142,5.1589 1.4464,1.176 4.1842,1.481 7.3093,0.8142 1.1706,-0.2498 2.2445,-0.6093 4.4654,-1.4947 3.864,-1.5408 5.2221,-1.8315 8.9683,-1.9194 2.9906,-0.071 4.6707,0.1265 7.0981,0.8315 0.6766,0.1965 1.2455,0.3573 1.2641,0.3573 0.2946,0 -1.0189,-1.4606 -1.7729,-1.9714 -1.1927,-0.808 -2.5831,-1.3508 -4.061,-1.5852 -0.8199,-0.13 -2.9636,-0.3279 -3.5624,-0.3287 -0.4936,-7e-4 -0.5377,0.019 -1.4423,0.636 -0.5133,0.3504 -1.1328,0.7016 -1.3769,0.7807 -0.6004,0.1946 -1.4322,0.123 -2.4544,-0.2115 -0.4349,-0.1423 -0.804,-0.226 -0.8204,-0.1859 -0.1495,0.3673 -0.9556,1.7656 -1.0298,1.7867 -0.052,0.015 -0.3054,-0.3764 -0.5619,-0.8694 -0.5508,-1.0582 -0.6982,-1.1723 -1.4203,-1.0998 -0.2867,0.029 -0.5449,0.1046 -0.6084,0.1783 -0.061,0.07 -0.1851,0.3899 -0.2762,0.7099 -0.091,0.3198 -0.2042,0.6696 -0.251,0.7773 l -0.086,0.1956 -0.1631,-0.1941 c -0.091,-0.1069 -0.4466,-0.6139 -0.793,-1.1269 l -0.6295,-0.9325 -0.5473,-0.1619 c -0.4396,-0.13 -0.5907,-0.2233 -0.7684,-0.4744 -0.4584,-0.6477 -0.3953,-1.3192 0.2059,-2.1906 0.3788,-0.5491 0.3672,-0.7492 -0.055,-0.961 -0.5087,-0.255 -0.8673,-0.6179 -0.8673,-0.8776 0,-0.9711 1.438,-1.6682 7.4418,-3.6073 3.6453,-1.1774 3.6249,-1.1689 4.1327,-1.7237 0.5178,-0.5659 0.8623,-0.7962 1.7357,-1.1607 1.4884,-0.6213 3.6887,-1.0642 6.6776,-1.3443 2.1028,-0.1972 2.4956,-0.2198 7.1555,-0.4124 2.7653,-0.1142 3.8557,-0.1883 4.2457,-0.2882 1.2762,-0.3267 2.2898,-0.9542 2.2898,-1.4174 0,-0.134 -0.086,-0.3862 -0.1908,-0.5608 -0.2753,-0.4579 -0.2531,-0.5142 0.1844,-0.4644 0.5174,0.059 1.3257,0.3859 1.7679,0.7154 0.5707,0.4253 0.7457,0.8474 0.796,1.9201 l 0.043,0.9161 0.597,-0.054 c 0.8845,-0.08 1.5887,0.1148 2.1577,0.5981 0.5454,0.463 0.7263,0.9139 0.8749,2.1801 0.091,0.7709 0.13,0.9045 0.254,0.8589 1.238,-0.4548 1.3336,-0.4703 2.9136,-0.4712 0.9724,-6e-4 1.6824,0.037 1.9558,0.1046 0.2362,0.058 0.7192,0.1789 1.0734,0.269 l 0.644,0.1635 0,0.7526 c 0,1.556 -0.3159,3.3236 -0.7252,4.0583 -0.5024,0.9018 -1.6542,1.5966 -3.1956,1.9271 l -0.8668,0.186 1.0726,0.5115 c 1.4123,0.6736 2.3769,1.2895 3.1735,2.0263 0.6571,0.6079 1.8291,2.0058 1.743,2.079 -0.026,0.022 -0.3779,-0.077 -0.7829,-0.2205 -1.5699,-0.5546 -2.3953,-0.6385 -2.87,-0.2917 -0.5845,0.4271 -0.2311,1.3722 1.2126,3.2424 0.4189,0.5427 0.8671,1.2072 0.9963,1.4768 0.4976,1.0395 0.5778,2.4663 0.1951,3.4809 -0.3305,0.8768 -0.387,0.9324 -0.6489,0.6395 -0.7255,-0.8113 -0.9534,-1.0202 -1.3667,-1.2525 -0.481,-0.2704 -1.1018,-0.4499 -1.8725,-0.5415 -0.3745,-0.045 -0.4532,-0.032 -0.4532,0.073 0,0.069 0.3629,0.7762 0.8066,1.5701 1.3903,2.4882 1.801,3.769 1.7984,5.6081 0,0.9406 -0.041,1.3 -0.2041,1.8078 -0.3925,1.2282 -0.9782,2.1582 -2.1342,3.3896 -1.5366,1.6368 -2.4316,2.9267 -2.6994,3.8908 -0.1655,0.5959 -0.1846,1.623 -0.042,2.277 0.1671,0.7672 0.1262,0.7809 -0.683,0.2283 -1.275,-0.8705 -2.5037,-2.242 -3.0038,-3.3524 -0.3406,-0.7565 -0.6125,-1.6388 -0.6125,-1.9879 0,-0.1835 -0.04,-0.2648 -0.1192,-0.2433 -0.3315,0.09 -1.7833,2.5694 -1.9954,3.4088 -0.062,0.2474 -0.085,0.8005 -0.054,1.3569 0.049,0.9024 0.079,1.0111 0.7755,2.7779 0.9245,2.346 1.1393,3.205 1.0848,4.3392 -0.046,0.9542 -0.252,1.4202 -0.897,2.0259 -0.3089,0.2901 -1.3958,0.9697 -1.5509,0.9697 -0.035,0 -0.1137,-0.337 -0.1748,-0.7489 -0.1436,-0.9699 -0.2496,-1.2609 -0.6321,-1.7352 -0.3289,-0.4078 -1.08,-0.8545 -1.6823,-1.0006 -0.5372,-0.1304 -1.7353,-0.2528 -2.1984,-0.2248 l -0.4266,0.026 -0.2609,1.4978 c -0.566,3.2498 -1.257,4.8031 -3.0552,6.8696 -1.2529,1.4394 -1.4656,2.0059 -1.1727,3.1233 0.1233,0.4705 0.312,0.8242 0.8335,1.562 0.3707,0.5245 0.6955,0.9849 0.7216,1.0231 0.093,0.1344 -0.6034,-0.049 -1.2166,-0.3217 -1.8131,-0.8048 -2.975,-1.99 -3.4827,-3.5529 -0.3236,-0.996 -0.2827,-3.2947 0.092,-5.1208 0.067,-0.3229 0.084,-0.587 0.039,-0.587 -0.2611,0 0.011,-0.1504 0.6278,-0.3464 1.414,-0.4497 2.2243,-0.9702 2.6979,-1.7326 0.6881,-1.1077 0.6612,-2.2047 -0.103,-4.217 -0.4456,-1.1725 -0.6324,-1.9895 -0.6324,-2.7643 0,-2.022 1.127,-3.3576 3.5577,-4.2158 1.2205,-0.431 2.0209,-1.1556 2.4164,-2.1876 0.1485,-0.3881 0.1713,-0.7739 0.1758,-2.9956 l 0.011,-2.5504 0.2527,-0.5883 c 0.6878,-1.6006 2.0639,-2.5444 4.173,-2.862 0.2938,-0.044 0.6093,-0.099 0.7011,-0.1219 0.1705,-0.043 0.2313,-0.3111 0.087,-0.3865 -0.1966,-0.1036 -1.9183,0.2873 -2.6873,0.6094 -2.3145,0.9693 -3.3501,2.9234 -3.0538,5.763 0.2398,2.2981 0,3.3358 -0.9665,4.228 -0.6306,0.5805 -1.6699,0.8814 -3.6418,1.0545 -0.5002,0.044 -0.5514,0.066 -0.5248,0.2243 0.027,0.1616 0.076,0.1739 0.6192,0.1528 l 0.5896,-0.022 -0.6484,0.5501 c -1.0754,0.9126 -1.5326,1.8959 -1.5326,3.2959 0,0.9122 0.1644,1.6536 0.6652,2.9987 0.6394,1.7175 0.7091,2.5927 0.2832,3.5586 -0.3829,0.8684 -1.5241,1.5747 -3.28,2.03 l -0.6619,0.1715 -0.7522,0.8857 c -1.639,1.93 -2.4048,3.3129 -2.7019,4.8794 -0.081,0.429 -0.1621,0.792 -0.1794,0.8068 -0.017,0.015 -0.1623,-0.3123 -0.3219,-0.7271 -0.8383,-2.1796 -0.6821,-3.6947 0.5262,-5.1025 0.3588,-0.4182 0.3484,-0.5084 -0.1007,-0.8649 l -0.244,-0.1936 -0.5326,0.2739 c -1.0635,0.5468 -1.9363,1.4448 -2.3824,2.4505 -0.33,0.7439 -0.5007,1.542 -0.7149,3.3419 -0.2292,1.9265 -0.2628,2.1266 -0.4521,2.7005 -0.3532,1.0703 -1.1717,2.0109 -2.2147,2.5453 -0.5161,0.2644 -2.3894,0.8552 -2.7116,0.8552 -0.1472,0 -0.1482,-0.024 -0.013,-0.2982 0.4964,-1.0078 0.6969,-2.4907 0.5287,-3.9096 -0.1064,-0.8958 -0.4301,-2.4948 -0.521,-2.5721 -0.024,-0.02 -0.2554,-0.013 -0.5134,0.017 l -0.4693,0.054 0.011,1.3502 c 0.011,1.6046 -0.1331,2.2497 -0.6974,3.221 -0.4666,0.8032 -1.3607,1.5598 -2.4334,2.0595 -0.6487,0.3021 -0.7454,0.3805 -1.0275,0.8328 -0.4108,0.6583 -1.307,1.4135 -2.0149,1.6977 -0.9391,0.3771 -1.5849,0.4711 -3.568,0.519 -1.0101,0.024 -1.8365,0.055 -1.8365,0.069 0,0.014 0.043,0.1211 0.096,0.2389 0.094,0.2096 0.09,0.2131 -0.2146,0.1602 -0.1709,-0.03 -0.5897,-0.1261 -0.9309,-0.214 -0.3409,-0.088 -0.9035,-0.1807 -1.25,-0.2062 l -0.6301,-0.046 -0.4896,0.4134 c -0.2692,0.2272 -0.6512,0.4821 -0.8488,0.5662 -0.4843,0.2063 -1.7068,0.541 -2.7,0.7393 -0.4478,0.09 -1.1133,0.2489 -1.4789,0.3544 -0.6268,0.181 -6.5743,2.2952 -7.1198,2.5309 -0.1395,0.061 -0.6248,0.4015 -1.0784,0.7581 -0.9637,0.7577 -1.8163,1.2079 -2.8302,1.4946 -0.7186,0.2031 -0.7838,0.2067 -5.1044,0.279 -4.8458,0.081 -5.1409,0.1119 -5.6096,0.5845 -0.2945,0.2971 -0.3139,0.6155 -0.062,1.0281 0.2181,0.3581 0.326,0.4179 1.3591,0.7539 1.6973,0.5521 2.3451,1.1979 2.088,2.0822 -0.061,0.2083 -0.4919,0.9618 -0.9587,1.6744 -1.2989,1.9833 -1.3532,2.1586 -0.8685,2.807 0.4826,0.6458 1.2626,1.0329 2.4269,1.2044 0.4024,0.059 0.6179,0.1248 0.5631,0.1713 -0.049,0.042 -0.4065,0.1694 -0.795,0.2844 -0.5909,0.1748 -0.8852,0.2102 -1.8034,0.2168 -1.0316,0.011 -1.1263,-0.011 -1.5846,-0.2195 -0.5661,-0.2641 -1.5468,-1.0802 -2.2027,-1.8333 -0.406,-0.4661 -0.5543,-0.5664 -1.2986,-0.8774 -1.4184,-0.5927 -1.6831,-1.0717 -1.7523,-3.1708 -0.024,-0.7347 -0.062,-1.3822 -0.083,-1.4388 -0.032,-0.081 -0.111,-0.078 -0.3811,0.018 -0.8135,0.2885 -1.0081,0.557 -1.8095,2.4958 -0.1983,0.4801 -0.4828,1.0362 -0.6319,1.2359 -0.3091,0.4134 -0.9594,0.7959 -1.6574,0.9744 -0.6903,0.1766 -2.3334,0.377 -2.6952,0.3287 -0.4377,-0.059 -0.7647,0.2028 -1.2415,0.9918 -0.4657,0.7709 -0.5737,1.2574 -0.4049,1.8255 0.1322,0.4451 0.5106,1.1368 0.6666,1.2187 0.1188,0.062 0.1286,0.2033 0.014,0.2033 -0.046,0 -0.3999,-0.1763 -0.7871,-0.3919 z m 56.9491,-37.1289 c 0.8061,-0.3119 1.5582,-1.0027 2.0327,-1.8671 0.2159,-0.3932 0.5111,-1.1885 0.7512,-2.0239 0.7635,-2.6556 1.7719,-3.8871 3.6769,-4.4898 0.6701,-0.2118 2.0644,-0.2986 2.9801,-0.1854 0.5457,0.067 0.5999,0.061 0.6536,-0.083 0.1109,-0.2957 -0.095,-0.3393 -1.6091,-0.341 -1.2679,0 -1.5321,0.023 -2.0827,0.1833 -2.1086,0.6186 -3.3822,2.109 -4.0952,4.7925 -0.6171,2.3224 -1.4654,3.4143 -2.9337,3.7766 -0.6402,0.1579 -1.9793,0.1189 -3.0066,-0.088 -0.695,-0.1396 -0.8306,-0.1205 -0.8306,0.1171 0,0.1228 0.1312,0.175 0.6917,0.2754 0.3805,0.068 0.7776,0.1411 0.8825,0.1621 0.1053,0.021 0.6631,0.03 1.2404,0.021 0.926,-0.016 1.1199,-0.045 1.6488,-0.2499 z m -6.4396,-7.9803 c 0.6615,-0.2099 1.5293,-0.8601 2.0998,-1.5729 0.2154,-0.2691 0.6314,-0.945 0.9246,-1.5022 0.7213,-1.3702 0.9552,-1.739 1.4753,-2.3262 1.4525,-1.6396 3.5721,-2.1491 6.0849,-1.4627 0.353,0.096 0.6602,0.1594 0.6826,0.1398 0.021,-0.019 0.057,-0.1047 0.074,-0.1883 0.027,-0.1244 -0.091,-0.1885 -0.6304,-0.3444 -2.9043,-0.8384 -5.3732,-0.068 -7.0932,2.2113 -0.173,0.2295 -0.5889,0.9324 -0.9241,1.5621 -0.3354,0.6298 -0.7277,1.3162 -0.8719,1.5253 -0.4264,0.6183 -1.1502,1.2071 -1.8356,1.4935 -0.5388,0.2251 -0.7227,0.2604 -1.3442,0.2583 -0.7833,0 -1.6497,-0.1937 -2.7106,-0.5976 -0.6203,-0.2363 -0.6246,-0.2367 -0.6881,-0.067 -0.083,0.2214 0.078,0.3191 1.0513,0.6377 1.5579,0.5103 2.6223,0.5772 3.7057,0.2332 z m 18.3387,-31.4469 c 0.3673,-0.1181 0.7721,-0.2822 0.8996,-0.3647 l 0.2317,-0.1498 -0.6407,-0.6518 c -2.6534,-2.6997 -4.5659,-2.8899 -5.6546,-0.5627 -0.2974,0.6357 -0.305,0.6204 0.5857,1.1598 1.083,0.6557 1.8218,0.8523 3.0518,0.812 0.6374,-0.02 1.0307,-0.083 1.5265,-0.2428 z m -3.721,-0.4124 c -0.6942,-0.3174 -0.9602,-0.7487 -0.8829,-1.431 0.1395,-1.2327 1.8057,-1.6155 2.6788,-0.6153 0.2892,0.3313 0.3258,1.0059 0.077,1.4195 -0.3744,0.6228 -1.245,0.9142 -1.8731,0.6268 z m 0.315,-1.2697 c 0.297,-0.2523 -0.011,-0.8411 -0.3405,-0.6619 -0.279,0.1493 -0.3541,0.3261 -0.2337,0.5503 0.1188,0.2214 0.384,0.2728 0.5742,0.1116 z m -2.5819,0.4162 c 0.2342,-0.069 0.3274,-0.1738 0.4877,-0.5465 0.2572,-0.5981 0.6821,-1.1613 1.0386,-1.3767 1.0058,-0.6077 2.2671,-0.3603 4.4454,0.8721 1.1667,0.6601 1.5637,0.8358 2.3001,1.0174 0.7276,0.1795 1.8967,0.1297 2.6296,-0.1121 0.5734,-0.189 1.5665,-0.6521 1.5071,-0.7025 -0.02,-0.017 -0.2714,0.022 -0.5575,0.089 -1.448,0.3336 -2.7193,0.3025 -3.6287,-0.089 -0.2556,-0.1099 -0.7986,-0.4285 -1.2065,-0.7079 -1.1854,-0.812 -1.6685,-1.0883 -2.4639,-1.4088 -0.6418,-0.2586 -0.8635,-0.3057 -1.5754,-0.3346 -0.7519,-0.031 -0.8759,-0.014 -1.3415,0.184 -0.6378,0.2706 -0.9262,0.4964 -1.5712,1.2298 -0.5691,0.6472 -1.0058,0.9194 -1.4752,0.9194 -0.5006,0 -0.7581,-0.2627 -0.7581,-0.7732 0,-0.2315 0.064,-0.5758 0.1432,-0.7651 0.1695,-0.4078 0.1722,-0.4297 0.046,-0.3637 -0.226,0.1185 -0.4756,0.698 -0.4756,1.104 0,1.1352 1.3365,2.0957 2.4556,1.7647 z m 7.7196,75.7009 c -1.1085,-0.1598 -2.0468,-0.8005 -2.4676,-1.6851 -0.192,-0.4034 -0.2176,-0.5967 -0.2179,-1.6427 l 0,-1.1855 -2.8482,-1.5672 c -1.5667,-0.8619 -2.962,-1.648 -3.1008,-1.7467 l -0.2526,-0.1797 0.334,0 c 0.1836,0 1.6417,-0.063 3.2402,-0.1381 l 2.9062,-0.1365 0.7475,0.682 c 1.4298,1.3043 2.4557,2.7241 3.0305,4.1939 0.2992,0.7654 0.5652,2.1216 0.5687,2.9006 0,0.4135 0,0.4222 -0.3083,0.462 -0.7208,0.094 -1.1964,0.1073 -1.6314,0.045 z" id="path8882" inkscape:connector-curvature="0"/>
    <path sodipodi:nodetypes="cccc" inkscape:connector-curvature="0" id="path6785-6-2-1" d="m 316.06802,356.90616 c 1.1863,0 -0.1849,0.8959 -1.5304,0.767 2.0841,0.2798 2.348,-0.2028 2.6897,-0.6136 0.5383,-1.8125 -3.0268,-0.9379 -1.1593,-0.1534 z" style="fill:#000000;fill-opacity:1;stroke:none"/>
    <path sodipodi:nodetypes="ccc" inkscape:connector-curvature="0" id="path6787-60-1-9" d="m 350.80292,356.54186 c 3.7003,-2.8668 7.5524,-0.8717 3.5709,1.4189 1.439,-2.0361 -0.8096,-2.6677 -3.5709,-1.4189 z" style="fill:#000000;fill-opacity:1;stroke:none"/>
    <path sodipodi:nodetypes="cccccc" inkscape:connector-curvature="0" id="path6791-8-8" d="m 338.56542,365.59496 c -8.8872,-4.2081 -17.0806,-1.9975 -20.6371,-0.038 -6.2495,2.567 -15.5848,1.5677 -9.6459,-5.9443 -14.6019,5.2255 0.5072,14.1312 10.7126,7.3633 9.3469,-5.5941 17.8503,-1.2936 19.8486,-0.038 0.3882,0.1332 1.4403,0.5876 -0.2782,-1.3423 z" style="fill:#da121a;fill-opacity:1;stroke:none"/>
    <path sodipodi:nodetypes="cccc" inkscape:connector-curvature="0" id="path6793-0-6" d="m 267.70342,354.99506 c -2.9115,0.7199 -5.8403,1.4256 -4.6565,5.532 0.6299,-2.6784 2.74,-2.603 4.7221,-2.766 3.0533,-1.3126 0.4976,-2.926 -0.066,-2.766 z" style="fill:#da121a;fill-opacity:1;stroke:none"/>
    <path sodipodi:nodetypes="cccc" inkscape:connector-curvature="0" id="path6793-2-1-4" d="m 273.95642,347.52706 c -2.9174,-0.7037 -5.8398,-1.427 -7.5438,2.5525 2.2888,-1.9658 4.0106,-0.9544 5.7816,-0.2008 3.4257,0.2697 2.3402,-2.233 1.7622,-2.3517 z" style="fill:#da121a;fill-opacity:1;stroke:none"/>
    <path sodipodi:nodetypes="cccc" inkscape:connector-curvature="0" id="path6793-7-2-6" d="m 288.67212,350.69936 c 0.6062,-2.4625 1.2359,-4.9309 -3.701,-6.0055 2.5585,1.7233 1.4824,3.2262 0.7211,4.7481 -0.042,2.8456 2.8848,1.7436 2.9799,1.2574 z" style="fill:#da121a;fill-opacity:1;stroke:none"/>
    <path sodipodi:nodetypes="cccc" inkscape:connector-curvature="0" id="path6793-6-5-8" d="m 270.33702,363.56716 c -2.0546,1.8514 -4.1331,3.698 -0.573,6.7237 -1.1179,-2.5675 0.7412,-3.3963 2.3426,-4.3758 1.8094,-2.4206 -1.3849,-2.7239 -1.7696,-2.3479 z" style="fill:#da121a;fill-opacity:1;stroke:none"/>
    <path sodipodi:nodetypes="cccc" inkscape:connector-curvature="0" id="path6793-1-0-9" d="m 263.74992,413.37946 c -2.4335,-1.5051 -4.8635,-3.0301 -8.147,0.2024 2.9769,-1.1772 4.1607,0.2694 5.4995,1.4887 3.0938,1.2462 3.1384,-1.4123 2.6475,-1.6911 z" style="fill:#da121a;fill-opacity:1;stroke:none"/>
    <path sodipodi:nodetypes="cccc" inkscape:connector-curvature="0" id="path6793-4-9-8" d="m 257.51452,419.87936 c -2.9115,0.72 -5.8401,1.4255 -4.6565,5.532 0.6298,-2.6785 2.7401,-2.603 4.722,-2.766 3.0534,-1.3126 0.4978,-2.9261 -0.066,-2.766 z" style="fill:#da121a;fill-opacity:1;stroke:none"/>
    <path sodipodi:nodetypes="cccc" inkscape:connector-curvature="0" id="path6793-23-4-3" d="m 261.70012,427.69266 c -1.0174,2.3921 -2.059,4.7881 2.6427,6.3216 -2.2387,-1.9548 -0.9193,-3.3483 0.092,-4.7906 0.5233,-2.8264 -2.5583,-2.0058 -2.7349,-1.531 z" style="fill:#da121a;fill-opacity:1;stroke:none"/>
    <path sodipodi:nodetypes="cccc" inkscape:connector-curvature="0" id="path6793-22-7-5" d="m 274.34402,429.78956 c 1.7944,1.9498 3.5782,3.9182 7.8411,1.4119 -3.2513,0.5604 -3.8738,-1.0849 -4.7242,-2.5396 -2.5146,-1.8273 -3.4877,0.7586 -3.1169,1.1277 z" style="fill:#da121a;fill-opacity:1;stroke:none"/>
    <path sodipodi:nodetypes="cccc" inkscape:connector-curvature="0" id="path6793-16-8-5" d="m 270.79072,456.64426 c -2.9087,-0.7276 -5.8221,-1.4752 -7.5743,2.4899 2.3124,-1.9466 4.0219,-0.9211 5.7838,-0.1529 3.4223,0.2981 2.3671,-2.2134 1.7905,-2.337 z" style="fill:#da121a;fill-opacity:1;stroke:none"/>
    <path sodipodi:nodetypes="cccc" inkscape:connector-curvature="0" id="path6793-8-3-1" d="m 267.52522,464.25376 c -2.9115,0.7199 -5.8403,1.4256 -4.6565,5.5321 0.63,-2.6786 2.74,-2.6031 4.722,-2.7661 3.0534,-1.3126 0.4978,-2.9261 -0.066,-2.766 z" style="fill:#da121a;fill-opacity:1;stroke:none"/>
    <path sodipodi:nodetypes="cccc" inkscape:connector-curvature="0" id="path6793-5-5-5" d="m 273.50962,469.65446 c -0.6267,2.459 -1.2769,4.9236 3.6505,6.0264 -2.544,-1.7378 -1.4552,-3.2345 -0.6812,-4.7522 0.066,-2.8452 -2.8701,-1.7599 -2.9693,-1.2742 z" style="fill:#da121a;fill-opacity:1;stroke:none"/>
    <path sodipodi:nodetypes="cccc" inkscape:connector-curvature="0" id="path6793-76-1-5" d="m 289.95882,470.33216 c 0.1109,2.5113 0.2446,5.0315 -4.838,5.4245 2.8647,-1.3543 2.1001,-2.9824 1.6496,-4.5868 0.5217,-2.8129 3.1907,-1.3303 3.1884,-0.8377 z" style="fill:#da121a;fill-opacity:1;stroke:none"/>
    <path sodipodi:nodetypes="cccc" inkscape:connector-curvature="0" id="path6793-18-2-8" d="m 357.42782,474.33836 c -3.0284,-0.2085 -6.0666,-0.4355 -6.7769,3.745 1.7687,-2.3036 3.7001,-1.5965 5.617,-1.15 3.4222,-0.3005 1.755,-2.574 1.1599,-2.595 z" style="fill:#da121a;fill-opacity:1;stroke:none"/>
    <path sodipodi:nodetypes="cccc" inkscape:connector-curvature="0" id="path6793-9-0-4" d="m 354.75232,481.22956 c -2.9115,0.7199 -5.8402,1.4255 -4.6564,5.532 0.6298,-2.6785 2.74,-2.603 4.7219,-2.766 3.0533,-1.3126 0.4978,-2.9261 -0.066,-2.766 z" style="fill:#da121a;fill-opacity:1;stroke:none"/>
    <path sodipodi:nodetypes="cccc" inkscape:connector-curvature="0" id="path6793-27-1-0" d="m 362.54562,484.77486 c -1.2071,2.3063 -2.4386,4.6142 2.1242,6.5074 -2.074,-2.1223 -0.6463,-3.4095 0.4783,-4.7689 0.7497,-2.7774 -2.3882,-2.198 -2.6025,-1.7385 z" style="fill:#da121a;fill-opacity:1;stroke:none"/>
    <path sodipodi:nodetypes="cccc" inkscape:connector-curvature="0" id="path6793-95-6-5" d="m 375.50992,483.66746 c -0.2399,2.5051 -0.4591,5.0212 -5.5627,4.9265 3.0344,-1.0718 2.5021,-2.762 2.2786,-4.3987 0.9107,-2.7443 3.3549,-1.0169 3.2841,-0.5278 z" style="fill:#da121a;fill-opacity:1;stroke:none"/>
    <path sodipodi:nodetypes="cccc" inkscape:connector-curvature="0" id="path8430-0" d="m 308.23372,359.53856 c -2.9651,0.7082 -8.6698,3.7336 -4.7786,7.6308 -0.9712,-0.4878 -1.7176,-4.5826 3.8297,-6.2383 z" style="fill:#da121a;fill-opacity:1;stroke:none"/>
    <path sodipodi:nodetypes="cccccc" inkscape:connector-curvature="0" id="path8432-3" d="m 337.24392,365.05276 0.1864,0.3202 c -6.5662,-2.846 -13.2507,-1.8892 -17.5722,0.2925 -3.4066,1.1735 -9.4869,3.4318 -12.6073,0.083 6.7999,1.735 8.8554,-0.047 11.8956,-1.0305 5.5436,-2.6337 14.7672,-1.8522 18.0975,0.3342 z" style="fill:#da121a;fill-opacity:1;stroke:none"/>
    <path style="fill:none;stroke:#000000;stroke-width:0.44823128;stroke-linecap:butt;stroke-linejoin:miter;stroke-miterlimit:4;stroke-opacity:1;stroke-dasharray:none" d="m 332.39632,361.21656 c 3.0465,0.6477 5.0006,3.5539 6.2406,4.5249 2.6784,2.0974 -0.7068,3.6112 -4.2649,2.9175" id="path9000" inkscape:connector-curvature="0" sodipodi:nodetypes="csc"/>
    <path style="fill:#000000;stroke:none" d="m 304.15162,414.0326 c 5.9382,0.9269 9.9361,0.35 11.1161,-2.4107 3.2553,-1.2518 3.9375,-3.7902 3.8839,-6.6965 0.5498,2.2173 0.8817,4.4345 -0.4464,6.6518 4.488,-0.2391 6.2773,-2.2516 6.6072,-5.2232 0.3865,-3.0116 0.8053,-5.9614 2.5892,-6.2946 -1.5491,2.7083 0.017,5.4167 1.6072,8.125 -0.5212,-3.501 0.6576,-6.0811 2.9911,-8.0358 -0.8182,3.9029 -0.1719,7.2949 4.1071,9.4197 l -0.4018,-1.9197 -3.1696,-8.1696 -1.9197,-1.1161 -3.7946,0 -10.7589,5.8482 z" id="path9193" inkscape:connector-curvature="0" sodipodi:nodetypes="ccccccccccccccc"/>
    <path style="fill:#000000;stroke:none" d="m 299.38632,406.6405 c 6.9083,2.9684 12.2359,0.1221 16.7938,-5.5558 -4.5127,3.5755 -9.4523,6.4731 -16.7938,5.5558 z" id="path9195" inkscape:connector-curvature="0" sodipodi:nodetypes="ccc"/>
    <path style="fill:#000000;fill-opacity:1;stroke:none" d="m 290.26772,399.2781 c 7.0644,-0.059 9.46,-1.0888 10.5581,-2.3884 l -7.0983,0.1786 z" id="path9197" inkscape:connector-curvature="0" sodipodi:nodetypes="cccc"/>
    <path style="fill:#fcdd09;fill-opacity:1;stroke:none" d="m 309.39722,379.9477 c -2.536,2.4627 -4.6274,4.876 -6.4063,7.2545 -3.0998,3.8692 -6.6735,5.9778 -10.3571,7.6786 3.8124,-2.1789 7.2823,-4.7002 10.0039,-7.9698 1.9061,-2.4947 4.0168,-4.8869 6.7595,-6.9633 z" id="path9199" inkscape:connector-curvature="0" sodipodi:nodetypes="ccccc"/>
  </g>
</svg>