<?xml version="1.0" standalone="no"?>
<!DOCTYPE svg PUBLIC "-//W3C//DTD SVG 20010904//EN"
 "http://www.w3.org/TR/2001/REC-SVG-20010904/DTD/svg10.dtd">
<svg version="1.0" xmlns="http://www.w3.org/2000/svg"
 width="1036.000000pt" height="1036.000000pt" viewBox="0 0 1036.000000 1036.000000"
 preserveAspectRatio="xMidYMid meet">
<metadata>
Created by potrace 1.14, written by Peter Selinger 2001-2017
</metadata>
<g transform="translate(0.000000,1036.000000) scale(0.100000,-0.100000)"
fill="#000000" stroke="none">
<path d="M4918 10349 c-424 -37 -836 -157 -1205 -349 -982 -512 -1630 -1484
-1722 -2583 -15 -173 -15 -4303 -1 -4472 95 -1104 739 -2071 1723 -2585 610
-318 1317 -430 2003 -315 1340 225 2398 1281 2629 2625 44 256 45 274 45 2505
0 1366 -4 2163 -10 2240 -134 1567 -1368 2801 -2935 2935 -135 11 -396 11
-527 -1z m3130 -6350 l-3 -161 -205 -82 c-823 -333 -1734 -774 -2524 -1223
l-129 -73 -231 129 c-127 71 -275 152 -329 181 -54 29 -95 56 -90 61 21 21
702 330 1023 464 685 286 1487 574 2145 769 121 35 243 71 270 80 81 24 76 34
73 -145z m-5462 -843 c630 -263 1318 -590 1894 -901 202 -109 190 -98 144
-128 -49 -31 -475 -301 -490 -310 -6 -3 -60 26 -120 65 -466 304 -1043 647
-1549 921 -109 59 -121 69 -127 99 -13 60 -22 358 -11 358 6 0 122 -47 259
-104z m5460 -53 c-9 -223 -10 -229 -60 -257 -22 -13 -151 -84 -286 -158 -781
-431 -1576 -938 -2331 -1490 -97 -70 -179 -128 -183 -128 -4 0 -96 64 -204
143 -108 79 -241 174 -294 212 -85 60 -95 70 -80 81 9 6 100 63 202 126 883
545 1843 1041 2825 1460 154 65 305 130 335 143 89 38 84 46 76 -132z m-5272
-1070 c580 -332 1166 -706 1716 -1094 124 -88 236 -168 250 -178 l25 -20 -30
-23 c-17 -12 -99 -78 -183 -146 l-153 -123 -132 45 c-662 225 -1223 688 -1572
1299 -66 115 -175 345 -175 368 0 16 11 11 254 -128z m5076 126 c0 -22 -111
-254 -175 -366 -447 -783 -1227 -1308 -2121 -1428 -122 -17 -474 -33 -474 -22
0 8 272 215 510 389 495 361 1021 710 1555 1034 246 149 685 403 698 404 4 0
7 -5 7 -11z"/>
</g>
</svg>
